<svg id="Group_766" xmlns="http://www.w3.org/2000/svg" xmlns:xlink="http://www.w3.org/1999/xlink" width="4853.785"
    height="1170.741" viewBox="0 0 4853.785 1170.741">
    <defs>
        <clipPath id="clip-path">
            <path id="Path_5280"
                d="M3012.913,84.443c43,20.98,75.779,53.648,121.558,70.767,71.454,26.712,150.476,9.387,230.218-7.937,72.715-15.806,146.022-31.6,214.721-14.03,98.6,25.228,155.667,112.393,255.884,133.519,45.771,9.654,94.45,3.93,140.891-3.57a1801.079,1801.079,0,0,0,309.677-78.4c107.116-37.67,232.784-85.38,334.64-39.816,47.83,21.392,78.267,59.389,115.534,90.924s91.5,58.788,144.854,47.641l-44.32,533.795L27.1,1227.845,323.01,780.46c260-49.083,523.163-99.092,759.2-196.589,111.329-45.977,220.616-103.469,346.258-112.908,35.285-2.651,70.724-1.373,106.189-.086,29.664,1.073,59.346,2.145,88.95.91,124.835-5.191,240.146-50.568,351.149-95.008Q2285.575,252.35,2596.4,127.914c88.675-35.5,191.664-70.8,287.573-70.81,45.316,0,89.036,7.877,128.937,27.339"
                transform="translate(-27.105 -57.104)" fill="#70a8c6" />
        </clipPath>
    </defs>
    <g id="Group_762" clip-path="url(#clip-path)">
        <rect id="Rectangle_468" width="1509.248" height="4924.11"
            transform="translate(24.014 1511.302) rotate(-94.033)" fill="#70a8c6" />
    </g>
</svg>
