<svg id="Group_767" xmlns="http://www.w3.org/2000/svg" xmlns:xlink="http://www.w3.org/1999/xlink" width="4297.784" height="1327.244" viewBox="0 0 4297.784 1327.244">
  <defs>
    <clipPath id="clip-path">
      <path id="Path_5279" d="M2820.274,148.468c-95.032,42.413-210.782,77.153-306.7,36.23-35.938-15.344-66.919-40.7-106.463-46.952-51.478-8.146-100.866,18.1-144.073,43.151q-169.969,98.541-339.928,197.081c-31.956,18.519-65.5,37.581-103.873,41.758-61.392,6.725-118.438-25.578-178.994-36.439-97.844-17.544-196.093,21.652-285.443,59.734Q880.013,645.4,405.273,847.762l1787.383,541.426H4683.443l19.613-556.506C4500.475,812.91,4331.1,698.8,4168.164,594.859c-276.337-176.251-567.794-335.472-871.326-475.938-55.375-25.634-113.063-51.129-175.888-56.072q-11.717-.919-23.323-.9c-98.011,0-189.284,47.23-277.353,86.524" transform="translate(-405.273 -61.944)" fill="#498bb4"/>
    </clipPath>
  </defs>
  <g id="Group_760" clip-path="url(#clip-path)">
    <rect id="Rectangle_467" width="4353.314" height="1784.922" transform="translate(-58.232 2.08) rotate(-2.045)" fill="#498bb4"/>
  </g>
</svg>
