<svg xmlns="http://www.w3.org/2000/svg" xmlns:xlink="http://www.w3.org/1999/xlink" width="1920" height="207.539" viewBox="0 0 1920 207.539">
  <defs>
    <clipPath id="clip-path">
      <rect id="Rectangle_506"  width="1920" height="207.539" fill="#a7cee5"/>
    </clipPath>
  </defs>
  <g id="Group_853"  transform="translate(0 0)">
    <g id="Group_852"  transform="translate(0 0)" clip-path="url(#clip-path)">
      <path id="Path_5389"  d="M1920,16.384c-1.664.026-3.243.094-5.018.094C1858.646,16.478,1858.646,0,1802.291,0c-56.32,0-56.32,16.478-112.64,16.478S1633.34,0,1577.028,0C1520.7,0,1520.7,16.478,1464.371,16.478S1408.051,0,1351.714,0c-56.311,0-56.311,16.478-112.64,16.478S1182.746,0,1126.417,0s-56.32,16.478-112.64,16.478S957.457,0,901.137,0c-56.3,0-56.3,16.478-112.623,16.478S732.194,0,675.874,0s-56.32,16.478-112.632,16.478C506.948,16.478,506.948,0,450.654,0c-56.329,0-56.329,16.478-112.649,16.478S281.694,0,225.374,0s-56.32,16.478-112.631,16.478S56.422,0,.111,0H0V207.531l.29.009c56.329,0,56.329-16.478,112.649-16.478,56.346,0,56.346,16.478,112.683,16.478s56.329-16.478,112.657-16.478c56.3,0,56.3,16.478,112.614,16.478,56.329,0,56.329-16.478,112.657-16.478s56.328,16.478,112.648,16.478,56.328-16.478,112.64-16.478c56.337,0,56.337,16.478,112.666,16.478s56.32-16.478,112.649-16.478c56.312,0,56.312,16.478,112.623,16.478s56.32-16.478,112.631-16.478,56.32,16.478,112.64,16.478,56.32-16.478,112.632-16.478c56.294,0,56.294,16.478,112.6,16.478s56.312-16.478,112.64-16.478,56.32,16.478,112.631,16.478,56.32-16.478,112.631-16.478c1.715,0,3.209.06,4.821.085Z" transform="translate(0 0.002)" fill="#a7cee5"/>
    </g>
  </g>
</svg>
